<?xml version="1.0" ?><!DOCTYPE svg  PUBLIC '-//W3C//DTD SVG 1.1//EN'  'http://www.w3.org/Graphics/SVG/1.1/DTD/svg11.dtd'><svg xmlns="http://www.w3.org/2000/svg" xmlns:xlink="http://www.w3.org/1999/xlink" xmlns:serif="http://www.serif.com/" width="100%" height="100%" viewBox="0 0 512 512" version="1.1" xml:space="preserve" style="fill-rule:evenodd;clip-rule:evenodd;stroke-linejoin:round;stroke-miterlimit:2;"><g transform="matrix(1,0,0,1,-1124,-562)"><g id="Icons"><path d="M1253.67,843.863C1253.31,844.386 1253.08,845.001 1253,845.672C1252.35,851.684 1252.39,857.749 1251.72,863.748C1250.38,875.663 1247.81,887.721 1245.09,899.387C1243.58,905.834 1241,911.616 1238.57,917.825C1238.12,918.974 1236.92,919.047 1235.81,919.273C1234.1,919.621 1232.3,919.81 1230.7,920.228C1224.28,921.907 1222.8,926.269 1220.38,932.528C1220.05,933.397 1219.33,935.009 1219,936.362C1218.72,937.507 1218.69,938.568 1218.84,939.379C1219.03,940.388 1219.74,941.844 1221.59,942.773C1223.3,943.631 1227.34,944.374 1227.98,944.484C1231.98,945.166 1236.01,945.038 1240.04,944.941C1244.05,944.845 1246.8,944.918 1250.01,942.151C1254.5,938.29 1256.9,932.169 1259.22,926.884C1262.34,919.797 1266.03,912.693 1270.02,906.046C1270.14,913.564 1269.54,921.1 1268.04,928.637C1267.94,929.162 1267.68,930.887 1267.54,931.852C1267.11,932.021 1266.54,932.239 1266.11,932.365C1264.44,932.86 1262.71,933.31 1261.64,933.799C1254.58,937.016 1251.2,944.757 1249.1,952.426C1248.78,953.6 1249.01,954.856 1249.73,955.839C1250.45,956.823 1251.57,957.426 1252.79,957.478C1260.07,957.791 1267.41,957.845 1274.7,957.872C1276.23,957.878 1278.38,958.173 1280.36,958.203C1282.28,958.232 1284.08,958.01 1285.45,957.465C1286.49,957.051 1287.67,956.094 1288.33,954.33C1289.05,952.408 1289.17,948.232 1289.32,947.154C1290.35,940.156 1290.94,933.116 1292.05,926.124C1295.12,906.748 1303.53,887.991 1305.16,868.484C1305.75,861.365 1305.38,854.105 1305.36,846.967C1305.36,846.013 1305.17,844.483 1305.05,842.922C1305.03,842.626 1305.02,842.265 1305.02,841.907C1305.38,841.86 1305.75,841.818 1306.09,841.787C1308.7,841.55 1311.62,841.422 1312.33,841.311C1322.72,839.684 1332.59,836.404 1342.48,832.928C1351.97,829.594 1360.9,825.168 1369.03,819.217C1370.15,818.397 1372.38,816.184 1374.59,814.358C1374.72,814.246 1374.87,814.13 1375.03,814.013C1376.12,816.65 1377.66,820.362 1377.95,820.932C1380.56,826.053 1383.72,830.68 1387.41,834.854C1387.44,835.099 1387.49,835.345 1387.57,835.588C1390.28,844.035 1394.51,854.46 1400.62,860.967C1403.82,864.374 1407.82,867.271 1411.36,870.508C1414.26,873.161 1416.86,876.04 1417.92,879.99C1419.93,887.546 1416.86,896.521 1415.94,904.16C1415.85,904.921 1415.75,905.683 1415.63,906.443C1411.75,905.366 1407.42,905.914 1404.09,908.24C1400.1,911.022 1397.82,915.558 1396.56,920.113C1396.46,920.46 1395.62,923.889 1395.57,924.604C1395.33,927.732 1397.83,928.681 1398.47,928.865C1402.36,929.975 1407.59,929.423 1411.65,929.504C1415.57,929.582 1419.49,929.612 1423.41,929.633C1424.35,929.638 1426.02,929.876 1427.37,929.765C1428.62,929.662 1429.7,929.307 1430.52,928.797C1437.63,924.317 1440.44,914.282 1441.47,906.548C1442.17,901.29 1441.82,895.977 1442.35,890.706C1443.04,883.81 1444.45,876.04 1447.16,869.392C1453.62,872.003 1459.95,875.047 1464.97,879.6C1475.2,888.877 1478.87,908.364 1474.9,921.181C1473.01,927.294 1468.79,932.977 1467.78,939.301C1467.62,940.32 1467.42,944.133 1467.92,945.961C1468.37,947.612 1469.35,948.588 1470.2,949.072C1471.05,949.559 1472.46,949.917 1474.15,949.888C1476.07,949.855 1478.66,949.35 1479.81,949.296C1486.79,948.967 1493.75,948.365 1500.72,947.862C1500.95,947.845 1504.26,947.324 1504.46,943.816C1504.56,942.12 1504.61,933.629 1504.63,932.771C1504.92,919.904 1505.47,907.294 1503.89,894.473C1502.92,886.614 1502.47,875.326 1498.11,868.471C1494.33,862.512 1488.78,858.242 1483.38,853.8C1478.79,850.025 1474.28,846.125 1471.76,840.274C1466.82,828.819 1464.74,816.213 1462.35,803.741C1459.83,790.566 1456.96,777.538 1450.6,765.962C1449.96,764.809 1449.27,763.701 1448.52,762.634C1452.28,763.995 1455.86,765.879 1459.85,768.778C1466.45,773.581 1471.91,779.77 1478.13,785.043C1484.95,790.822 1492.19,796.017 1498.49,802.391C1506.88,810.882 1514.24,820.366 1522.58,828.939C1541.29,848.175 1563.75,863.142 1590.74,867.291C1600.66,868.816 1611.15,869.77 1620.99,867.249C1623.13,866.701 1624.42,864.52 1623.88,862.382C1623.33,860.243 1621.15,858.951 1619.01,859.499C1610.2,861.753 1600.83,860.747 1591.95,859.384C1566.72,855.504 1545.81,841.346 1528.31,823.36C1519.95,814.772 1512.59,805.273 1504.18,796.767C1497.72,790.226 1490.3,784.872 1483.31,778.941C1476.93,773.539 1471.32,767.227 1464.55,762.306C1455.43,755.679 1448.25,753.594 1437.47,751.739C1431.33,747.316 1424.29,743.961 1417.58,741.238C1386.68,728.695 1352.02,733.531 1319.8,736.23C1308.7,737.161 1294.89,739.744 1284.38,735.168C1277.61,732.222 1272.38,727.011 1266.31,722.934C1254.42,714.948 1242.58,707.384 1231.66,698.087C1226.81,693.958 1221.76,689.09 1216.21,685.219C1210.11,680.96 1203.43,677.905 1195.91,677.798C1182.5,677.607 1171.99,683.409 1162.85,691.477C1154.37,698.966 1147.1,708.447 1139.56,716.28C1138.57,717.308 1138.25,718.729 1138.57,720.019C1137.73,721.671 1136.95,723.384 1136.45,725.13C1134.22,733.015 1140.68,739.665 1147.62,741.412C1153.57,742.908 1159.64,742.535 1165.7,742.263C1170.85,742.033 1175.98,741.858 1180.98,743.696C1192.05,747.766 1200.01,758.614 1206.22,768.207C1213.58,779.593 1215.62,793.484 1223.01,804.749C1232.06,818.551 1244.32,830.23 1253.67,843.863ZM1433.12,758.37C1427.46,754.223 1420.81,751.182 1414.57,748.65C1384.84,736.581 1351.47,741.605 1320.47,744.202C1308.15,745.235 1292.85,747.58 1281.18,742.503C1273.97,739.363 1268.32,733.921 1261.85,729.575C1249.71,721.419 1237.63,713.673 1226.48,704.179C1221.81,700.207 1216.97,695.502 1211.63,691.779C1206.86,688.443 1201.69,685.881 1195.79,685.797C1184.54,685.637 1175.81,690.705 1168.15,697.474C1160.49,704.235 1153.86,712.67 1147.09,719.96C1147.09,720.591 1146.95,721.232 1146.63,721.83C1145.72,723.576 1144.69,725.406 1144.15,727.311C1143.75,728.712 1144.24,729.954 1145.07,730.941C1146.2,732.284 1147.89,733.231 1149.58,733.654C1154.76,734.958 1160.06,734.508 1165.34,734.271C1171.54,733.993 1177.72,733.972 1183.74,736.188C1196.4,740.842 1205.84,752.894 1212.93,763.863C1220.29,775.234 1222.32,789.112 1229.69,800.362C1240.07,816.188 1254.62,829.262 1264.27,845.61C1268.71,853.126 1270.98,861.641 1273.04,870.037C1274.99,877.97 1276.47,885.949 1277.3,893.954C1277.31,894.036 1277.32,894.118 1277.32,894.201C1278.54,906.158 1278.28,918.177 1275.89,930.198C1275.74,930.973 1275.6,932.905 1275.25,934.276C1274.9,935.707 1274.25,936.793 1273.65,937.389C1272.92,938.126 1271.78,938.826 1270.39,939.366C1268.62,940.052 1266.23,940.498 1264.96,941.077C1261.5,942.652 1259.62,945.975 1258.3,949.666C1263.77,949.817 1269.27,949.852 1274.73,949.872C1276.07,949.877 1277.85,950.085 1279.62,950.174C1280.07,950.198 1280.53,950.229 1280.97,950.232C1281.11,948.777 1281.33,946.539 1281.41,945.993C1282.44,938.965 1283.04,931.894 1284.15,924.873C1287.19,905.689 1295.58,887.132 1297.18,867.82C1297.76,860.928 1297.38,853.9 1297.36,846.99C1297.35,845.581 1296.92,842.854 1296.99,840.746C1297.02,839.756 1297.16,838.852 1297.39,838.083C1297.38,837.929 1297.37,837.765 1297.37,837.592C1297.34,836.35 1297.38,834.778 1297.46,832.979C1297.66,828.166 1298.1,823.001 1298.1,823.001C1298.1,823.001 1300.59,827.546 1302.72,831.867C1303.1,832.624 1303.44,833.339 1303.76,834.003C1306.56,833.68 1310.29,833.534 1311.09,833.408C1321,831.856 1330.39,828.694 1339.83,825.38C1348.58,822.307 1356.81,818.245 1364.31,812.76C1365.73,811.717 1368.98,808.364 1371.66,806.543C1371.78,806.465 1371.89,806.39 1372,806.317C1371.75,805.254 1371.54,804.198 1371.41,803.141C1370.95,799.371 1371.06,795.777 1371.88,792.263C1373.14,786.871 1375.78,781.918 1380.19,777.265C1377.4,782.525 1376.25,787.584 1376.39,792.724C1376.46,795.242 1376.98,797.667 1377.7,800.18C1378.27,802.182 1379.04,804.166 1380.02,806.173C1380.14,806.303 1380.26,806.444 1380.37,806.597C1381.6,808.276 1384.57,816.295 1385.08,817.304C1389.45,825.877 1395.58,832.871 1403.32,838.554C1413.92,846.338 1426.45,852.602 1438.62,857.491C1441.08,858.479 1443.62,859.449 1446.18,860.451C1446.42,860.521 1446.67,860.616 1446.91,860.738L1446.91,860.739C1455.29,864.039 1463.81,867.745 1470.35,873.674C1482.63,884.815 1487.31,908.152 1482.55,923.545C1481.57,926.702 1479.99,929.749 1478.51,932.813C1477.28,935.336 1476.11,937.865 1475.68,940.553C1475.65,940.736 1475.64,941.218 1475.64,941.759L1475.77,941.745C1477.23,941.57 1478.65,941.342 1479.43,941.305C1485.14,941.036 1490.83,940.582 1496.52,940.152C1496.56,937.173 1496.62,933.113 1496.63,932.591C1496.91,920.115 1497.49,907.886 1495.95,895.454C1495.11,888.623 1495.15,878.721 1491.36,872.763C1488.03,867.525 1483.05,863.884 1478.3,859.98C1472.74,855.408 1467.47,850.528 1464.41,843.443C1459.24,831.46 1456.99,818.293 1454.49,805.246C1452.13,792.902 1449.55,780.663 1443.59,769.817C1441.24,765.54 1437.89,762.017 1434.02,759.046C1433.69,758.863 1433.39,758.634 1433.12,758.37ZM1260.32,855.595C1260.16,858.617 1260.01,861.638 1259.67,864.643C1258.29,876.867 1255.67,889.24 1252.88,901.209C1251.28,908.033 1248.59,914.168 1246.02,920.74C1244.91,923.589 1242.91,925.233 1240.46,926.229C1238.11,927.18 1235.18,927.326 1232.73,927.967C1231.11,928.39 1230.35,929.316 1229.76,930.527C1229.07,931.929 1228.55,933.583 1227.85,935.405C1227.78,935.581 1227.67,935.865 1227.55,936.191C1228.38,936.388 1229.16,936.568 1229.33,936.598C1232.82,937.193 1236.33,937.028 1239.84,936.944C1240.72,936.923 1241.52,936.935 1242.27,936.908C1243.16,936.875 1243.96,936.808 1244.79,936.088C1248.39,932.989 1250.03,927.908 1251.9,923.667C1255.21,916.119 1259.16,908.553 1263.43,901.494C1265.51,898.056 1266.61,895.453 1269.14,892.894C1268.32,885.882 1266.98,878.895 1265.27,871.945C1263.91,866.433 1262.51,860.848 1260.32,855.595ZM1400.33,846.26C1402.05,849.722 1404.07,852.955 1406.45,855.492C1409.51,858.755 1413.37,861.505 1416.76,864.605C1420.79,868.291 1424.18,872.441 1425.65,877.929C1427.91,886.416 1424.91,896.53 1423.89,905.11C1423.64,907.138 1423.32,909.167 1422.99,911.184C1423,911.162 1423.01,911.063 1423.01,911.063C1423.01,911.063 1422.67,913.322 1422.49,913.772C1421.92,915.154 1420.95,915.711 1420.38,915.967C1419.91,916.176 1418.83,916.591 1417.32,916.084C1416.71,915.88 1414.16,914.497 1413.55,914.166C1411.91,913.694 1410.07,913.821 1408.66,914.802C1406.38,916.394 1405.21,919.045 1404.43,921.663C1406.92,921.73 1409.58,921.461 1411.81,921.505C1415.69,921.582 1419.57,921.612 1423.45,921.633C1424.12,921.636 1426.05,921.739 1426.63,921.772C1428.79,920.258 1430.18,917.867 1431.2,915.294C1432.48,912.078 1433.13,908.536 1433.54,905.489C1434.23,900.319 1433.87,895.094 1434.39,889.911C1435.14,882.338 1436.76,873.838 1439.71,866.503C1438.33,865.976 1436.97,865.45 1435.64,864.914C1423.53,860.046 1411.08,853.856 1400.33,846.26Z"/></g></g></svg>